<svg width="157" height="122" viewBox="0 0 157 122" fill="none" xmlns="http://www.w3.org/2000/svg">
<g filter="url(#filter0_d_1808_50)">
<path d="M2.48944 14.3886C-0.829813 11.0961 -0.829813 5.75978 2.48944 2.46735C5.80922 -0.822449 11.1908 -0.822449 14.5111 2.46735L65.5031 53.047C68.8234 56.3394 68.8234 61.66 65.5031 64.9524L14.5111 115.524C11.1908 118.817 5.80922 118.817 2.48944 115.524C-0.829813 112.232 -0.829813 106.911 2.48944 103.619L47.4672 58.9997L2.48944 14.3886ZM144.5 101.143C149.202 101.143 153 104.909 153 109.571C153 114.233 149.202 118 144.5 118H68C63.2984 118 59.5 114.233 59.5 109.571C59.5 104.909 63.2984 101.143 68 101.143H144.5Z" fill="#3294F8"/>
<path d="M64.975 53.5795L64.975 53.5794L13.9832 3.00012C13.9831 3.00002 13.983 2.99992 13.9829 2.99983C10.955 2.17826e-05 6.04496 9.55752e-05 3.01761 2.99982L64.975 53.5795ZM64.975 53.5795C67.9995 56.5786 67.9995 61.4208 64.975 64.4198L65.5031 64.9524M64.975 53.5795L65.5031 64.9524M65.5031 64.9524L64.975 64.4199L13.983 114.992C10.955 117.994 6.04494 117.994 3.01757 114.992C-0.00587073 111.993 -0.00587073 107.15 3.01761 104.151L2.48998 103.619M65.5031 64.9524L2.48998 103.619M2.48998 103.619L3.01764 104.151L47.9954 59.5321L48.5322 58.9996M2.48998 103.619L48.5322 58.9996M48.5322 58.9996L47.9953 58.4672M48.5322 58.9996L47.9953 58.4672M47.9953 58.4672L3.01761 13.8561C3.01761 13.8561 3.0176 13.8561 3.01759 13.8561C-0.00578554 10.8571 -0.00586453 5.99914 3.01736 3.00008L47.9953 58.4672ZM144.5 101.893C148.793 101.893 152.25 105.329 152.25 109.571C152.25 113.813 148.793 117.25 144.5 117.25H68C63.7067 117.25 60.25 113.813 60.25 109.571C60.25 105.329 63.7067 101.893 68 101.893H144.5Z" stroke="#3294F8" stroke-width="1.5"/>
</g>
<defs>
<filter id="filter0_d_1808_50" x="0" y="0" width="157" height="122" filterUnits="userSpaceOnUse" color-interpolation-filters="sRGB">
<feFlood flood-opacity="0" result="BackgroundImageFix"/>
<feColorMatrix in="SourceAlpha" type="matrix" values="0 0 0 0 0 0 0 0 0 0 0 0 0 0 0 0 0 0 127 0" result="hardAlpha"/>
<feOffset dx="4" dy="4"/>
<feComposite in2="hardAlpha" operator="out"/>
<feColorMatrix type="matrix" values="0 0 0 0 1 0 0 0 0 1 0 0 0 0 1 0 0 0 1 0"/>
<feBlend mode="normal" in2="BackgroundImageFix" result="effect1_dropShadow_1808_50"/>
<feBlend mode="normal" in="SourceGraphic" in2="effect1_dropShadow_1808_50" result="shape"/>
</filter>
</defs>
</svg>
